# xmcd
#
# Track frame offsets: 
#        150
#        9994
#        84840
#        104320
#        145835
#        163796
#        179920
#        201411
#        219056
#        240559
#        272906
#
# Disc length: 3840 seconds
#
# Revision: 0
# Processed by: cddbd v1.5.2PL0 Copyright (c) Steve Scherf et al.
# Submitted via: ExactAudioCopyFreeDBPlugin 1.0
#
DISCID=940efe0b
DTITLE=Jan Spálený - Sedmdesát CD3
DYEAR=2013
DGENRE=Blues
TTITLE0=Hodina mezi psem a vlkem
TTITLE1=Havran
TTITLE2=Hospoda U černýho světlo
TTITLE3=Balada o katovi
TTITLE4=Jakoby
TTITLE5=Blues o klamné naději
TTITLE6=Ještějednou si vrznout
TTITLE7=Vytopená dáma
TTITLE8=Krok - sun - krok
TTITLE9=Píseň o tvé ruce
TTITLE10=Aviatik
EXTD=
EXTT0=
EXTT1=
EXTT2=
EXTT3=
EXTT4=
EXTT5=
EXTT6=
EXTT7=
EXTT8=
EXTT9=
EXTT10=
PLAYORDER=
